<?xml version="1.0" encoding="UTF-8"?>
<svg version="1.1" xmlns="http://www.w3.org/2000/svg" width="1795" height="522">
<path d="M0 0 C57.08024203 -0.09051673 114.16046703 -0.16209579 171.24076665 -0.20426132 C177.98700863 -0.20925024 184.73325044 -0.21443651 191.47949219 -0.21972656 C192.15078954 -0.2202496 192.8220869 -0.22077263 193.5137266 -0.22131152 C215.2342899 -0.23832729 236.95481131 -0.26835028 258.67534927 -0.30518888 C281.64895734 -0.34408154 304.62254876 -0.36800372 327.59619033 -0.37635398 C341.34480654 -0.3818292 355.09330241 -0.39909198 368.84188156 -0.43166587 C378.28311611 -0.45288855 387.72428889 -0.45918256 397.16554554 -0.45400551 C402.60416904 -0.45145577 408.04258297 -0.45523017 413.48116875 -0.4768219 C455.72007962 -0.63629004 455.72007962 -0.63629004 473 4 C474.71405627 4.43742083 474.71405627 4.43742083 476.46273994 4.88367844 C478.959793 5.5557474 481.37551988 6.32505119 483.8125 7.1875 C484.66448975 7.48156738 485.51647949 7.77563477 486.39428711 8.07861328 C518.45316669 19.58601031 543.55516643 43.86192404 558.25 74.3125 C566.74074761 92.45830025 572.06882005 110.8923329 573 131 C573.061875 132.13501953 573.061875 132.13501953 573.125 133.29296875 C574.11290695 169.16634005 559.37840414 205.06507271 535.16796875 231.20703125 C502.60087937 265.2979128 463.3314471 270.18185895 418.18432617 271.24780273 C380.0756769 272.11045479 341.96357353 272.30604303 303.84701765 272.51740921 C294.78443032 272.56780492 285.721869 272.62232869 276.65930712 272.67708123 C258.10622901 272.78908534 239.55312617 272.89627644 221 273 C221.54210869 273.74868599 221.54210869 273.74868599 222.09516907 274.51249695 C223.76851728 276.82427205 225.44090269 279.1367421 227.11328125 281.44921875 C227.68147583 282.23389526 228.24967041 283.01857178 228.83508301 283.82702637 C232.66473805 289.12428473 236.44074983 294.45637656 240.1875 299.8125 C250.95399351 315.10732238 262.67491719 329.46200944 275.390625 343.171875 C277.75304726 345.73234464 280.06791795 348.32729768 282.375 350.9375 C289.78483457 359.18543077 297.61328763 367.1809358 306.078125 374.3515625 C307.44716957 375.52582431 308.7883651 376.73288755 310.109375 377.9609375 C317.94596231 385.24528208 326.42649264 391.62005497 335 398 C335.75442383 398.56332031 336.50884766 399.12664062 337.28613281 399.70703125 C347.20377151 407.08483857 357.23545845 413.92452048 368 420 C368.79857422 420.45729492 369.59714844 420.91458984 370.41992188 421.38574219 C424.52993057 452.26794053 480.42614952 461.94999062 541.98498321 462.30332303 C545.68982471 462.32552714 549.39462971 462.35274371 553.09944153 462.37937927 C560.08281734 462.42884948 567.06621391 462.47395327 574.04962951 462.51740164 C583.50908647 462.57651531 592.96849512 462.64255 602.4279089 462.70815182 C617.28523981 462.81100998 632.14261367 462.90477333 647 463 C647 482.47 647 501.94 647 522 C609.9421073 522.09502024 572.93231009 521.88269991 535.88354492 521.06317139 C533.32800544 521.00718579 530.77243078 520.95428268 528.21679688 520.90283203 C441.92695959 519.11749919 361.15257387 495.44897322 293 441 C292.05898438 440.25234375 291.11796875 439.5046875 290.1484375 438.734375 C284.51712709 434.19760098 279.11229355 429.46143448 273.80078125 424.5546875 C271.69101575 422.63029888 269.55890953 420.76594535 267.390625 418.91015625 C262.36162773 414.52259156 257.66097454 409.81115019 252.9543457 405.0847168 C251.4400742 403.56508332 249.9205257 402.05087483 248.40039062 400.53710938 C243.05579738 395.19649845 237.90072713 389.75424642 233 384 C231.97883314 382.84304397 230.9554229 381.68806383 229.9296875 380.53515625 C222.39930424 372.00137292 215.37428157 363.17603808 208.55566406 354.06591797 C207.10265718 352.13632848 205.63019907 350.22395545 204.1484375 348.31640625 C184.38286565 322.70285006 167.73615871 294.63006042 151 267 C149.26538286 264.13683677 147.53010768 261.27408347 145.79272461 258.41259766 C144.64463515 256.52141714 143.49829583 254.62917298 142.35375977 252.73583984 C139.22220379 247.57480916 136.02690618 242.46469915 132.75 237.39453125 C132.05124756 236.30519287 131.35249512 235.21585449 130.63256836 234.09350586 C129.27871468 231.98855798 127.91278305 229.89131712 126.53344727 227.80297852 C125.92557373 226.85479248 125.3177002 225.90660645 124.69140625 224.9296875 C124.14685791 224.09679199 123.60230957 223.26389648 123.04125977 222.40576172 C121.75876711 219.44264738 121.96512032 218.02277875 123 215 C125.60437374 212.39562626 126.66501045 212.74986716 130.29266548 212.74946022 C131.42236735 212.74446152 132.55206923 212.73946283 133.71600449 212.73431265 C134.96771404 212.73897587 136.21942358 212.74363908 137.50906372 212.7484436 C138.84407333 212.74630672 140.17908176 212.74328254 141.51408756 212.73944318 C145.19562585 212.73137148 148.87706311 212.73572504 152.55860114 212.74196196 C156.52483382 212.74648173 160.49104677 212.73946253 164.45727539 212.73365784 C171.33695291 212.72500877 178.2166047 212.72322073 185.09628677 212.72560501 C195.06066651 212.72869953 205.02498929 212.71707338 214.98935471 212.70105521 C231.17763112 212.67506346 247.36590757 212.65506294 263.55419922 212.64160156 C264.52381166 212.64079119 265.49342411 212.63998082 266.49241875 212.6391459 C280.22669539 212.62794468 293.96096799 212.6226483 307.69524859 212.61975877 C308.66061636 212.61955478 309.62598413 212.61935079 310.62060547 212.61914062 C311.58479413 212.61894069 312.54898279 212.61874075 313.54238929 212.61853476 C329.65201737 212.61479468 345.76158405 212.5956558 361.87118137 212.56404626 C371.80122163 212.5451762 381.73110404 212.53914274 391.66115724 212.54986344 C398.47893601 212.55620882 405.29660218 212.54806835 412.11435629 212.52880932 C416.0414111 212.51818248 419.9681921 212.51388093 423.8952446 212.52728081 C449.51296426 212.6076979 471.0283389 210.95286503 491 193 C491.61101562 192.48179687 492.22203125 191.96359375 492.8515625 191.4296875 C506.66040247 178.8819288 514.30179846 158.97975432 515.25 140.69921875 C516.02038289 118.56780485 509.29582514 98.12673185 494.41552734 81.46533203 C480.10743727 66.6538183 460.50349294 59.56125859 440.15947104 58.86938947 C438.80016781 58.86174418 437.44082806 58.85932394 436.08150482 58.8613348 C435.32263615 58.85849258 434.56376748 58.85565036 433.78190279 58.85272202 C431.24859297 58.84442496 428.71532917 58.84311075 426.18200684 58.84178162 C424.34368994 58.83721287 422.50537408 58.83221238 420.66705942 58.82681805 C415.62283771 58.81326322 410.57862272 58.80582628 405.53438759 58.79939139 C400.0920699 58.79137577 394.64976614 58.77768199 389.2074585 58.76467896 C379.78070004 58.74293269 370.35394017 58.72478144 360.9271698 58.70907402 C347.29765236 58.68635855 333.66815037 58.65821804 320.03864604 58.62875474 C297.92551045 58.58109941 275.81236851 58.5378212 253.69921875 58.49731445 C232.21874499 58.45795621 210.73827683 58.41653165 189.2578125 58.37231445 C188.59550388 58.37095192 187.93319527 58.36958939 187.2508167 58.36818558 C179.9395534 58.35314202 172.62829022 58.33804197 165.31702709 58.32291877 C110.21136298 58.20898633 55.10568658 58.10244014 0 58 C0 38.86 0 19.72 0 0 Z " fill="#FF1200" transform="translate(523,0)"/>
<path d="M0 0 C18.15 0 36.3 0 55 0 C55 152.46 55 304.92 55 462 C206.47 462 357.94 462 514 462 C514 481.14 514 500.28 514 520 C344.38 520 174.76 520 0 520 C0 348.4 0 176.8 0 0 Z " fill="#FF1200" transform="translate(1281,1)"/>
<path d="M0 0 C0.69399902 0.20431641 1.38799805 0.40863281 2.10302734 0.61914062 C41.18300894 12.44165607 72.26359387 37.34232197 100.75 65.5625 C102.06303101 66.85583252 102.06303101 66.85583252 103.40258789 68.17529297 C109.37115551 74.13652334 114.74728599 80.40508 120 87 C121.08519635 88.31656665 122.17338169 89.63067995 123.265625 90.94140625 C128.7649786 97.59237954 134.08686028 104.3384819 139.12890625 111.34375 C139.68600784 112.11687027 140.24310944 112.88999054 140.8170929 113.6865387 C146.98343059 122.29761252 152.84599713 131.10439366 158.6875 139.9375 C159.82339175 141.64963883 160.95962724 143.36154965 162.09619141 145.07324219 C164.35149135 148.47026968 166.60516547 151.86836744 168.85791016 155.26708984 C171.64790235 159.47341742 174.45090468 163.67084642 177.26171875 167.86328125 C184.70949856 178.97626528 192.05703037 190.13462544 199.15234375 201.4765625 C202.17022732 206.29217803 205.2682487 211.05389349 208.375 215.8125 C213.49029809 223.65331192 218.54000937 231.53344168 223.55810547 239.43676758 C228.02281415 246.46810001 232.50750677 253.48639157 237 260.5 C238.33597071 262.58852042 239.67190833 264.67706202 241.0078125 266.765625 C243.683218 270.947175 246.36658305 275.12347894 249.0546875 279.296875 C250.32822108 281.28118834 251.60166258 283.26556078 252.875 285.25 C253.46410156 286.16072266 254.05320312 287.07144531 254.66015625 288.00976562 C255.20285156 288.85732422 255.74554687 289.70488281 256.3046875 290.578125 C256.77890137 291.31450195 257.25311523 292.05087891 257.74169922 292.80957031 C259.08017861 295.13957363 260.02508692 297.49953895 261 300 C253.61678813 300.02545836 246.23358768 300.04291229 238.8503418 300.05493164 C236.34122291 300.05994503 233.83210692 300.06675742 231.32299805 300.07543945 C227.70621015 300.08763652 224.08946104 300.0932584 220.47265625 300.09765625 C218.80336815 300.10539818 218.80336815 300.10539818 217.10035706 300.11329651 C200.86226895 300.11445311 200.86226895 300.11445311 196.21728516 297.3347168 C193.64784955 294.62919899 191.54482995 291.76499404 189.5234375 288.64453125 C189.11648651 288.03056488 188.70953552 287.41659851 188.29025269 286.7840271 C186.97718572 284.79865083 185.6759377 282.80584052 184.375 280.8125 C183.46645178 279.43293353 182.55726883 278.05378488 181.64746094 276.67504883 C179.46095612 273.35689955 177.28404693 270.0326183 175.11242676 266.70471191 C174.16052861 265.24599824 173.20690385 263.78841153 172.25292969 262.33105469 C167.92227522 255.71096454 163.66444934 249.0454028 159.41796875 242.37109375 C150.55699441 228.45808113 141.52150504 214.67857914 132.33421326 200.98019409 C129.78685267 197.18054225 127.25327417 193.37200271 124.7265625 189.55859375 C111.87513276 170.17166611 98.78064585 150.98576798 84 133 C83.19820312 132.01128906 82.39640625 131.02257812 81.5703125 130.00390625 C68.4937792 114.15030951 53.83350033 98.87340782 37 87 C36.43748535 86.59313965 35.8749707 86.1862793 35.29541016 85.76708984 C21.0503317 75.51685287 5.62509896 67.21928504 -11 61.5625 C-12.33019165 61.10399658 -12.33019165 61.10399658 -13.68725586 60.63623047 C-30.61652786 55.20503748 -48.40639514 53.26338701 -66.02490234 51.56201172 C-69.28990347 51.24613954 -72.55312055 50.91511882 -75.81640625 50.58203125 C-77.92439234 50.37152451 -80.0324625 50.16185765 -82.140625 49.953125 C-83.10011047 49.85630432 -84.05959595 49.75948364 -85.04815674 49.659729 C-95.91413935 48.04894511 -95.91413935 48.04894511 -106 51 C-110.14349 57.87252373 -109.14606015 67.27445348 -109.12025452 75.04812622 C-109.12153615 76.48814414 -109.12153615 76.48814414 -109.12284368 77.95725334 C-109.1244794 81.14616367 -109.11900861 84.33502037 -109.11352539 87.52392578 C-109.11324308 89.8209381 -109.11340211 92.1179505 -109.1139679 94.41496277 C-109.11425416 100.63112245 -109.10838505 106.84726273 -109.10139394 113.06341791 C-109.09513195 119.56700701 -109.09455435 126.07059658 -109.09336853 132.57418823 C-109.09061611 143.48370712 -109.08437489 154.39321887 -109.07543945 165.30273438 C-109.06624889 176.53548141 -109.05917611 187.76822652 -109.05493164 199.00097656 C-109.05466892 199.6943193 -109.05440619 200.38766203 -109.05413551 201.10201515 C-109.05283039 204.5805974 -109.0515667 208.05917966 -109.05032361 211.53776193 C-109.03997077 240.3585135 -109.02154314 269.17925441 -109 298 C-127.48 298 -145.96 298 -165 298 C-165.02202575 259.16182383 -165.04049747 220.32365352 -165.05106533 181.48547289 C-165.05231611 176.90527293 -165.05361042 172.32507299 -165.05493164 167.74487305 C-165.05519395 166.83299785 -165.05545626 165.92112266 -165.05572652 164.98161488 C-165.06008353 150.19657565 -165.06797125 135.41154029 -165.0771528 120.62650336 C-165.08648847 105.46738242 -165.09205543 90.30826352 -165.09408849 75.14913982 C-165.0954639 65.78735745 -165.09981544 56.42558601 -165.10791647 47.063807 C-165.11318287 40.65310846 -165.11480454 34.24241561 -165.11350138 27.83171505 C-165.11285783 24.12737123 -165.11387738 20.42304658 -165.11920547 16.71870613 C-165.12492645 12.71220267 -165.12300117 8.70574058 -165.12025452 4.69923401 C-165.12316736 3.51540762 -165.1260802 2.33158123 -165.12908131 1.11188132 C-165.12709026 0.04745462 -165.12509921 -1.01697208 -165.12304783 -2.11365414 C-165.12342755 -3.03979202 -165.12380727 -3.96592991 -165.1241985 -4.92013258 C-165 -7 -165 -7 -164 -8 C-162.57034355 -8.12257407 -161.13483251 -8.17778935 -159.70019531 -8.20532227 C-158.77723663 -8.22525742 -157.85427795 -8.24519257 -156.90335083 -8.26573181 C-155.88852631 -8.28245438 -154.87370178 -8.29917694 -153.828125 -8.31640625 C-152.77551483 -8.33727798 -151.72290466 -8.35814972 -150.63839722 -8.37965393 C-147.1756766 -8.44626359 -143.71288217 -8.50494041 -140.25 -8.5625 C-138.4814566 -8.59376984 -138.4814566 -8.59376984 -136.67718506 -8.62567139 C-34.87551592 -10.41961723 -34.87551592 -10.41961723 0 0 Z " fill="#FF1200" transform="translate(380,222)"/>
<path d="M0 0 C17.82 0 35.64 0 54 0 C54 171.6 54 343.2 54 520 C36.18 520 18.36 520 0 520 C0 348.4 0 176.8 0 0 Z " fill="#FF1200" transform="translate(0,1)"/>
</svg>
