<?xml version="1.0" encoding="UTF-8"?>
<svg version="1.1" xmlns="http://www.w3.org/2000/svg" width="112" height="45">
<path d="M0 0 C4.6263658 -0.1237709 9.25176461 -0.21441516 13.87939453 -0.2746582 C15.45280751 -0.29977448 17.02610412 -0.33387472 18.59912109 -0.37719727 C20.86324772 -0.43798399 23.12583022 -0.46623582 25.390625 -0.48828125 C26.44240936 -0.52699089 26.44240936 -0.52699089 27.51544189 -0.56648254 C31.2260427 -0.56860454 32.70838013 -0.27580389 35.44433594 2.31176758 C37.49367288 5.85308099 37.57622775 7.96640577 37 12 C35.20437595 14.75329021 33.94745078 16.52627461 31 18 C28.62876754 18.23029956 26.25258057 18.41119942 23.875 18.5625 C22.59367187 18.64628906 21.31234375 18.73007812 19.9921875 18.81640625 C18.51105469 18.90728516 18.51105469 18.90728516 17 19 C22.32097781 24.42246785 26.43865425 27.1088882 34 28 C35.16208984 28.16242187 35.16208984 28.16242187 36.34765625 28.328125 C38.22821649 28.58019304 40.11381192 28.79423403 42 29 C42 30.32 42 31.64 42 33 C39.45767658 33.08152344 36.91800798 33.14073716 34.375 33.1875 C33.66214844 33.21263672 32.94929688 33.23777344 32.21484375 33.26367188 C25.42252618 33.35714414 20.69518135 31.08140074 15.5234375 26.59375 C11.92656236 22.83086524 8 18.32657723 8 13 C8.62567871 12.97494385 9.25135742 12.9498877 9.89599609 12.92407227 C12.72254619 12.80824727 15.54875169 12.68546015 18.375 12.5625 C19.85226563 12.50352539 19.85226563 12.50352539 21.359375 12.44335938 C22.77089844 12.38051758 22.77089844 12.38051758 24.2109375 12.31640625 C25.51490479 12.26141968 25.51490479 12.26141968 26.84521484 12.20532227 C29.0483262 12.12598456 29.0483262 12.12598456 31 11 C31.65555119 8.47266765 31.65555119 8.47266765 32 6 C28.57117059 4.85705686 25.75917162 4.79035528 22.14453125 4.68359375 C21.48289474 4.66281265 20.82125824 4.64203156 20.13957214 4.62062073 C18.03065148 4.55535273 15.92160865 4.49634656 13.8125 4.4375 C12.38084685 4.39429311 10.94920596 4.35067812 9.51757812 4.30664062 C6.01184846 4.19969494 2.50598214 4.09836359 -1 4 C-0.67 2.68 -0.34 1.36 0 0 Z " fill="#FF1200" transform="translate(32,6)"/>
<path d="M0 0 C1.65 0 3.3 0 5 0 C5.33 9.24 5.66 18.48 6 28 C14.91 28 23.82 28 33 28 C33 29.65 33 31.3 33 33 C22.11 33 11.22 33 0 33 C0 22.11 0 11.22 0 0 Z " fill="#FF1200" transform="translate(79,6)"/>
<path d="M0 0 C12.1316932 -0.43849493 12.1316932 -0.43849493 16 3 C21.11915216 8.09523089 24.76601043 13.56182722 28 20 C25.234375 20.30859375 25.234375 20.30859375 22 20 C19.953125 17.84765625 19.953125 17.84765625 18.25 15.0625 C16.199302 11.41149014 16.199302 11.41149014 13 9 C13 8.34 13 7.68 13 7 C12.4225 6.855625 11.845 6.71125 11.25 6.5625 C9.16666667 6.04166667 7.08333333 5.52083333 5 5 C5 9.95 5 14.9 5 20 C3.35 20 1.7 20 0 20 C0 13.4 0 6.8 0 0 Z " fill="#FF1200" transform="translate(13,19)"/>
<path d="M0 0 C1.32 0 2.64 0 4 0 C4 10.89 4 21.78 4 33 C2.68 33 1.36 33 0 33 C0 22.11 0 11.22 0 0 Z " fill="#FF1200" transform="translate(0,6)"/>
</svg>
