<?xml version="1.0" encoding="UTF-8"?>
<svg xmlns="http://www.w3.org/2000/svg" xmlns:xlink="http://www.w3.org/1999/xlink" width="155px" height="45px" viewBox="0 0 154 45" version="1.1">
<g id="surface1">
<path style=" stroke:none;fill-rule:nonzero;fill:rgb(100%,7.058824%,0%);fill-opacity:1;" d="M 44.871094 0 C 49.765625 -0.0078125 54.664062 -0.015625 59.5625 -0.0195312 C 60.140625 -0.0195312 60.71875 -0.0195312 61.296875 -0.0195312 C 61.355469 -0.0195312 61.414062 -0.0195312 61.472656 -0.0195312 C 63.335938 -0.0195312 65.199219 -0.0234375 67.0625 -0.0273438 C 69.035156 -0.03125 71.003906 -0.03125 72.976562 -0.03125 C 74.15625 -0.03125 75.335938 -0.0351562 76.515625 -0.0390625 C 77.324219 -0.0390625 78.132812 -0.0390625 78.945312 -0.0390625 C 79.410156 -0.0390625 79.878906 -0.0390625 80.34375 -0.0429688 C 83.96875 -0.0546875 83.96875 -0.0546875 85.449219 0.34375 C 85.597656 0.382812 85.597656 0.382812 85.746094 0.421875 C 85.960938 0.480469 86.167969 0.546875 86.378906 0.621094 C 86.453125 0.644531 86.523438 0.671875 86.601562 0.695312 C 89.351562 1.6875 91.503906 3.78125 92.765625 6.40625 C 93.492188 7.96875 93.949219 9.558594 94.03125 11.292969 C 94.035156 11.390625 94.035156 11.390625 94.039062 11.492188 C 94.125 14.582031 92.863281 17.679688 90.785156 19.929688 C 87.992188 22.871094 84.621094 23.292969 80.746094 23.382812 C 77.476562 23.457031 74.207031 23.476562 70.9375 23.492188 C 70.160156 23.496094 69.382812 23.5 68.605469 23.507812 C 67.015625 23.515625 65.421875 23.527344 63.832031 23.535156 C 63.878906 23.597656 63.878906 23.597656 63.925781 23.664062 C 64.066406 23.863281 64.210938 24.0625 64.355469 24.261719 C 64.402344 24.332031 64.453125 24.398438 64.503906 24.46875 C 64.832031 24.925781 65.15625 25.382812 65.476562 25.847656 C 66.402344 27.164062 67.40625 28.402344 68.496094 29.582031 C 68.699219 29.804688 68.898438 30.027344 69.097656 30.253906 C 69.730469 30.964844 70.402344 31.652344 71.128906 32.273438 C 71.246094 32.371094 71.363281 32.476562 71.476562 32.582031 C 72.148438 33.210938 72.875 33.761719 73.609375 34.308594 C 73.675781 34.359375 73.742188 34.40625 73.808594 34.457031 C 74.65625 35.09375 75.519531 35.683594 76.441406 36.207031 C 76.511719 36.246094 76.578125 36.285156 76.648438 36.328125 C 81.292969 38.988281 86.085938 39.824219 91.371094 39.855469 C 91.6875 39.855469 92.003906 39.859375 92.324219 39.859375 C 92.921875 39.863281 93.519531 39.867188 94.121094 39.871094 C 94.933594 39.878906 95.742188 39.882812 96.554688 39.886719 C 97.828125 39.898438 99.105469 39.90625 100.378906 39.914062 C 100.378906 41.59375 100.378906 43.269531 100.378906 45 C 97.199219 45.007812 94.023438 44.988281 90.847656 44.917969 C 90.625 44.914062 90.40625 44.910156 90.1875 44.90625 C 82.785156 44.75 75.855469 42.710938 70.007812 38.015625 C 69.925781 37.953125 69.847656 37.886719 69.761719 37.820312 C 69.28125 37.429688 68.816406 37.023438 68.359375 36.597656 C 68.179688 36.433594 67.996094 36.273438 67.8125 36.113281 C 67.378906 35.734375 66.976562 35.328125 66.570312 34.921875 C 66.441406 34.789062 66.3125 34.660156 66.179688 34.527344 C 65.722656 34.070312 65.28125 33.597656 64.859375 33.101562 C 64.773438 33.003906 64.683594 32.902344 64.597656 32.804688 C 63.949219 32.070312 63.347656 31.308594 62.761719 30.523438 C 62.636719 30.355469 62.511719 30.191406 62.386719 30.027344 C 60.6875 27.820312 59.261719 25.398438 57.824219 23.015625 C 57.675781 22.769531 57.527344 22.523438 57.378906 22.277344 C 57.28125 22.113281 57.179688 21.949219 57.082031 21.789062 C 56.816406 21.34375 56.539062 20.902344 56.257812 20.464844 C 56.199219 20.371094 56.140625 20.277344 56.078125 20.179688 C 55.960938 20 55.84375 19.816406 55.726562 19.636719 C 55.675781 19.554688 55.621094 19.476562 55.566406 19.390625 C 55.519531 19.320312 55.472656 19.246094 55.425781 19.171875 C 55.316406 18.917969 55.335938 18.796875 55.421875 18.535156 C 55.644531 18.308594 55.738281 18.339844 56.046875 18.339844 C 56.144531 18.339844 56.242188 18.339844 56.34375 18.339844 C 56.449219 18.339844 56.558594 18.339844 56.667969 18.339844 C 56.78125 18.339844 56.898438 18.339844 57.011719 18.339844 C 57.328125 18.339844 57.644531 18.339844 57.957031 18.339844 C 58.300781 18.339844 58.640625 18.339844 58.980469 18.339844 C 59.570312 18.339844 60.160156 18.339844 60.75 18.339844 C 61.605469 18.339844 62.460938 18.335938 63.316406 18.335938 C 64.703125 18.335938 66.09375 18.332031 67.480469 18.332031 C 67.566406 18.332031 67.648438 18.332031 67.734375 18.332031 C 68.910156 18.328125 70.089844 18.328125 71.269531 18.328125 C 71.351562 18.328125 71.433594 18.328125 71.519531 18.328125 C 71.601562 18.328125 71.683594 18.328125 71.769531 18.328125 C 73.152344 18.328125 74.535156 18.328125 75.917969 18.324219 C 76.769531 18.324219 77.621094 18.324219 78.472656 18.324219 C 79.058594 18.324219 79.640625 18.324219 80.226562 18.320312 C 80.5625 18.320312 80.902344 18.320312 81.238281 18.320312 C 83.4375 18.328125 85.28125 18.1875 86.996094 16.636719 C 87.046875 16.59375 87.101562 16.546875 87.152344 16.503906 C 88.339844 15.421875 88.992188 13.707031 89.074219 12.128906 C 89.140625 10.222656 88.566406 8.460938 87.289062 7.023438 C 86.058594 5.746094 84.378906 5.132812 82.632812 5.074219 C 82.515625 5.074219 82.398438 5.074219 82.285156 5.074219 C 82.21875 5.074219 82.152344 5.074219 82.085938 5.074219 C 81.867188 5.074219 81.652344 5.074219 81.433594 5.074219 C 81.277344 5.070312 81.117188 5.070312 80.960938 5.070312 C 80.527344 5.070312 80.09375 5.070312 79.664062 5.070312 C 79.195312 5.066406 78.730469 5.066406 78.261719 5.066406 C 77.453125 5.0625 76.644531 5.0625 75.835938 5.0625 C 74.667969 5.058594 73.496094 5.058594 72.328125 5.054688 C 70.429688 5.050781 68.535156 5.046875 66.636719 5.042969 C 64.792969 5.039062 62.949219 5.035156 61.105469 5.03125 C 61.050781 5.03125 60.992188 5.03125 60.933594 5.03125 C 60.308594 5.03125 59.679688 5.027344 59.054688 5.027344 C 54.324219 5.019531 49.597656 5.007812 44.871094 5 C 44.871094 3.351562 44.871094 1.699219 44.871094 0 Z M 44.871094 0 "/>
<path style=" stroke:none;fill-rule:nonzero;fill:rgb(100%,7.058824%,0%);fill-opacity:1;" d="M 109.902344 0.0859375 C 111.460938 0.0859375 113.015625 0.0859375 114.621094 0.0859375 C 114.621094 13.230469 114.621094 26.371094 114.621094 39.914062 C 127.617188 39.914062 140.609375 39.914062 154 39.914062 C 154 41.5625 154 43.214844 154 44.914062 C 139.449219 44.914062 124.894531 44.914062 109.902344 44.914062 C 109.902344 30.121094 109.902344 15.328125 109.902344 0.0859375 Z M 109.902344 0.0859375 "/>
<path style=" stroke:none;fill-rule:nonzero;fill:rgb(100%,7.058824%,0%);fill-opacity:1;" d="M 32.601562 19.136719 C 32.660156 19.15625 32.722656 19.171875 32.78125 19.191406 C 36.136719 20.210938 38.800781 22.355469 41.246094 24.789062 C 41.359375 24.902344 41.359375 24.902344 41.472656 25.015625 C 41.984375 25.527344 42.445312 26.070312 42.898438 26.636719 C 42.988281 26.75 43.082031 26.863281 43.175781 26.976562 C 43.648438 27.550781 44.105469 28.132812 44.539062 28.738281 C 44.585938 28.804688 44.632812 28.871094 44.683594 28.9375 C 45.210938 29.679688 45.714844 30.441406 46.214844 31.203125 C 46.3125 31.347656 46.410156 31.496094 46.507812 31.644531 C 46.703125 31.9375 46.894531 32.230469 47.089844 32.523438 C 47.328125 32.886719 47.570312 33.246094 47.808594 33.609375 C 48.449219 34.566406 49.078125 35.527344 49.6875 36.507812 C 49.945312 36.921875 50.210938 37.332031 50.480469 37.742188 C 50.917969 38.417969 51.351562 39.097656 51.78125 39.777344 C 52.164062 40.386719 52.550781 40.988281 52.933594 41.59375 C 53.050781 41.773438 53.164062 41.953125 53.277344 42.136719 C 53.507812 42.496094 53.738281 42.855469 53.96875 43.214844 C 54.078125 43.386719 54.1875 43.558594 54.296875 43.726562 C 54.347656 43.808594 54.398438 43.886719 54.449219 43.964844 C 54.496094 44.039062 54.542969 44.113281 54.589844 44.1875 C 54.632812 44.25 54.671875 44.316406 54.714844 44.378906 C 54.828125 44.582031 54.910156 44.785156 54.992188 45 C 54.359375 45.003906 53.726562 45.003906 53.09375 45.003906 C 52.878906 45.003906 52.664062 45.003906 52.449219 45.007812 C 52.136719 45.007812 51.828125 45.007812 51.515625 45.007812 C 51.375 45.007812 51.375 45.007812 51.226562 45.011719 C 49.835938 45.011719 49.835938 45.011719 49.4375 44.769531 C 49.214844 44.535156 49.035156 44.289062 48.863281 44.019531 C 48.828125 43.96875 48.792969 43.914062 48.753906 43.859375 C 48.644531 43.691406 48.53125 43.519531 48.417969 43.347656 C 48.34375 43.226562 48.265625 43.109375 48.1875 42.988281 C 48 42.703125 47.8125 42.417969 47.625 42.128906 C 47.542969 42.003906 47.460938 41.878906 47.378906 41.753906 C 47.007812 41.183594 46.644531 40.605469 46.277344 40.03125 C 45.519531 38.832031 44.742188 37.644531 43.957031 36.464844 C 43.738281 36.136719 43.519531 35.808594 43.300781 35.480469 C 42.199219 33.808594 41.078125 32.152344 39.808594 30.601562 C 39.738281 30.519531 39.671875 30.433594 39.601562 30.34375 C 38.476562 28.976562 37.21875 27.660156 35.777344 26.636719 C 35.726562 26.601562 35.679688 26.566406 35.628906 26.53125 C 34.40625 25.648438 33.085938 24.933594 31.65625 24.445312 C 31.542969 24.40625 31.542969 24.40625 31.425781 24.363281 C 29.976562 23.898438 28.449219 23.730469 26.9375 23.582031 C 26.65625 23.554688 26.378906 23.527344 26.097656 23.5 C 25.917969 23.480469 25.734375 23.460938 25.554688 23.445312 C 25.472656 23.4375 25.390625 23.425781 25.304688 23.417969 C 24.371094 23.28125 24.371094 23.28125 23.507812 23.535156 C 23.152344 24.125 23.238281 24.9375 23.238281 25.609375 C 23.238281 25.730469 23.238281 25.730469 23.238281 25.859375 C 23.238281 26.132812 23.238281 26.40625 23.242188 26.683594 C 23.242188 26.882812 23.242188 27.078125 23.242188 27.277344 C 23.242188 27.8125 23.242188 28.347656 23.242188 28.886719 C 23.242188 29.445312 23.242188 30.007812 23.242188 30.566406 C 23.242188 31.507812 23.242188 32.449219 23.242188 33.386719 C 23.246094 34.355469 23.246094 35.324219 23.246094 36.292969 C 23.246094 36.351562 23.246094 36.414062 23.246094 36.472656 C 23.246094 36.773438 23.246094 37.074219 23.246094 37.375 C 23.246094 39.859375 23.25 42.34375 23.25 44.828125 C 21.664062 44.828125 20.078125 44.828125 18.445312 44.828125 C 18.445312 41.480469 18.441406 38.132812 18.441406 34.785156 C 18.441406 34.386719 18.441406 33.992188 18.441406 33.597656 C 18.441406 33.519531 18.441406 33.441406 18.441406 33.359375 C 18.441406 32.085938 18.441406 30.8125 18.4375 29.535156 C 18.4375 28.230469 18.4375 26.921875 18.4375 25.617188 C 18.4375 24.808594 18.4375 24.003906 18.4375 23.195312 C 18.4375 22.640625 18.4375 22.089844 18.4375 21.539062 C 18.4375 21.21875 18.4375 20.898438 18.433594 20.578125 C 18.433594 20.234375 18.433594 19.886719 18.433594 19.542969 C 18.433594 19.441406 18.433594 19.339844 18.433594 19.234375 C 18.433594 19.140625 18.433594 19.050781 18.433594 18.957031 C 18.433594 18.875 18.433594 18.796875 18.433594 18.714844 C 18.445312 18.535156 18.445312 18.535156 18.53125 18.449219 C 18.652344 18.4375 18.777344 18.433594 18.898438 18.429688 C 18.980469 18.429688 19.058594 18.425781 19.140625 18.425781 C 19.226562 18.425781 19.316406 18.421875 19.402344 18.421875 C 19.496094 18.417969 19.585938 18.417969 19.679688 18.414062 C 19.976562 18.410156 20.273438 18.40625 20.570312 18.398438 C 20.722656 18.398438 20.722656 18.398438 20.875 18.394531 C 29.609375 18.238281 29.609375 18.238281 32.601562 19.136719 Z M 32.601562 19.136719 "/>
<path style=" stroke:none;fill-rule:nonzero;fill:rgb(100%,7.058824%,0%);fill-opacity:1;" d="M 0 0.0859375 C 1.527344 0.0859375 3.058594 0.0859375 4.632812 0.0859375 C 4.632812 14.878906 4.632812 29.671875 4.632812 44.914062 C 3.105469 44.914062 1.574219 44.914062 0 44.914062 C 0 30.121094 0 15.328125 0 0.0859375 Z M 0 0.0859375 "/>
</g>
</svg>
